<mxfile host="app.diagrams.net" agent="Mozilla/5.0 (X11; Linux x86_64) AppleWebKit/537.36 (KHTML, like Gecko) Chrome/133.0.0.0 Safari/537.36" version="27.0.1">
  <diagram name="Page-1" id="SuP9toZDJDy2TiDfMAzV">
    <mxGraphModel dx="1358" dy="748" grid="1" gridSize="10" guides="1" tooltips="1" connect="1" arrows="1" fold="1" page="1" pageScale="1" pageWidth="850" pageHeight="1100" math="0" shadow="0">
      <root>
        <mxCell id="0" />
        <mxCell id="1" parent="0" />
        <mxCell id="R47xytBqSI23kSyQV7mt-17" style="edgeStyle=orthogonalEdgeStyle;rounded=0;orthogonalLoop=1;jettySize=auto;html=1;exitX=1;exitY=0.5;exitDx=0;exitDy=0;entryX=0;entryY=0.5;entryDx=0;entryDy=0;" edge="1" parent="1" source="R47xytBqSI23kSyQV7mt-1" target="R47xytBqSI23kSyQV7mt-2">
          <mxGeometry relative="1" as="geometry" />
        </mxCell>
        <mxCell id="R47xytBqSI23kSyQV7mt-19" value="&amp;nbsp;raw&amp;nbsp;" style="edgeLabel;html=1;align=center;verticalAlign=middle;resizable=0;points=[];" vertex="1" connectable="0" parent="R47xytBqSI23kSyQV7mt-17">
          <mxGeometry x="-0.1684" y="-1" relative="1" as="geometry">
            <mxPoint x="-1" y="-1" as="offset" />
          </mxGeometry>
        </mxCell>
        <mxCell id="R47xytBqSI23kSyQV7mt-1" value="Sphere IMU raw&lt;br&gt;500Hz - 1kHz" style="rounded=0;whiteSpace=wrap;html=1;" vertex="1" parent="1">
          <mxGeometry x="40" y="670" width="120" height="30" as="geometry" />
        </mxCell>
        <mxCell id="R47xytBqSI23kSyQV7mt-20" style="edgeStyle=orthogonalEdgeStyle;rounded=0;orthogonalLoop=1;jettySize=auto;html=1;exitX=1;exitY=0.5;exitDx=0;exitDy=0;entryX=0;entryY=0.5;entryDx=0;entryDy=0;" edge="1" parent="1" source="R47xytBqSI23kSyQV7mt-2" target="R47xytBqSI23kSyQV7mt-3">
          <mxGeometry relative="1" as="geometry" />
        </mxCell>
        <mxCell id="R47xytBqSI23kSyQV7mt-21" value="&amp;nbsp;filtered&amp;nbsp;" style="edgeLabel;html=1;align=center;verticalAlign=middle;resizable=0;points=[];" vertex="1" connectable="0" parent="R47xytBqSI23kSyQV7mt-20">
          <mxGeometry x="-0.2667" y="-1" relative="1" as="geometry">
            <mxPoint x="3" y="-1" as="offset" />
          </mxGeometry>
        </mxCell>
        <mxCell id="R47xytBqSI23kSyQV7mt-2" value="Madgwick&lt;br&gt;Filter" style="rhombus;whiteSpace=wrap;html=1;" vertex="1" parent="1">
          <mxGeometry x="210" y="630" width="110" height="110" as="geometry" />
        </mxCell>
        <mxCell id="R47xytBqSI23kSyQV7mt-22" style="edgeStyle=orthogonalEdgeStyle;rounded=0;orthogonalLoop=1;jettySize=auto;html=1;exitX=1;exitY=0.5;exitDx=0;exitDy=0;entryX=0;entryY=0.5;entryDx=0;entryDy=0;" edge="1" parent="1" source="R47xytBqSI23kSyQV7mt-3" target="R47xytBqSI23kSyQV7mt-4">
          <mxGeometry relative="1" as="geometry" />
        </mxCell>
        <mxCell id="R47xytBqSI23kSyQV7mt-23" value="&amp;nbsp;data&amp;nbsp;" style="edgeLabel;html=1;align=center;verticalAlign=middle;resizable=0;points=[];" vertex="1" connectable="0" parent="R47xytBqSI23kSyQV7mt-22">
          <mxGeometry x="-0.3042" relative="1" as="geometry">
            <mxPoint as="offset" />
          </mxGeometry>
        </mxCell>
        <mxCell id="R47xytBqSI23kSyQV7mt-57" style="edgeStyle=orthogonalEdgeStyle;rounded=0;orthogonalLoop=1;jettySize=auto;html=1;exitX=0.5;exitY=1;exitDx=0;exitDy=0;entryX=0.5;entryY=0;entryDx=0;entryDy=0;" edge="1" parent="1" source="R47xytBqSI23kSyQV7mt-3" target="R47xytBqSI23kSyQV7mt-51">
          <mxGeometry relative="1" as="geometry" />
        </mxCell>
        <mxCell id="R47xytBqSI23kSyQV7mt-3" value="Extended&lt;br&gt;Kalman&lt;br&gt;Filter" style="rhombus;whiteSpace=wrap;html=1;" vertex="1" parent="1">
          <mxGeometry x="380" y="630" width="110" height="110" as="geometry" />
        </mxCell>
        <mxCell id="R47xytBqSI23kSyQV7mt-27" style="edgeStyle=orthogonalEdgeStyle;rounded=0;orthogonalLoop=1;jettySize=auto;html=1;exitX=1;exitY=0.5;exitDx=0;exitDy=0;entryX=0;entryY=0.5;entryDx=0;entryDy=0;" edge="1" parent="1" source="R47xytBqSI23kSyQV7mt-4" target="R47xytBqSI23kSyQV7mt-5">
          <mxGeometry relative="1" as="geometry">
            <Array as="points">
              <mxPoint x="680" y="685" />
              <mxPoint x="680" y="655" />
            </Array>
          </mxGeometry>
        </mxCell>
        <mxCell id="R47xytBqSI23kSyQV7mt-29" value="&amp;nbsp;TB6612FNG&amp;nbsp;" style="edgeLabel;html=1;align=center;verticalAlign=middle;resizable=0;points=[];" vertex="1" connectable="0" parent="R47xytBqSI23kSyQV7mt-27">
          <mxGeometry x="0.325" y="-2" relative="1" as="geometry">
            <mxPoint as="offset" />
          </mxGeometry>
        </mxCell>
        <mxCell id="R47xytBqSI23kSyQV7mt-28" style="edgeStyle=orthogonalEdgeStyle;rounded=0;orthogonalLoop=1;jettySize=auto;html=1;exitX=1;exitY=0.5;exitDx=0;exitDy=0;entryX=0;entryY=0.5;entryDx=0;entryDy=0;" edge="1" parent="1" source="R47xytBqSI23kSyQV7mt-4" target="R47xytBqSI23kSyQV7mt-6">
          <mxGeometry relative="1" as="geometry">
            <Array as="points">
              <mxPoint x="680" y="685" />
              <mxPoint x="680" y="715" />
            </Array>
          </mxGeometry>
        </mxCell>
        <mxCell id="R47xytBqSI23kSyQV7mt-30" value="&amp;nbsp;A4988&amp;nbsp;" style="edgeLabel;html=1;align=center;verticalAlign=middle;resizable=0;points=[];" vertex="1" connectable="0" parent="R47xytBqSI23kSyQV7mt-28">
          <mxGeometry x="0.2833" y="-1" relative="1" as="geometry">
            <mxPoint x="3" y="-1" as="offset" />
          </mxGeometry>
        </mxCell>
        <mxCell id="R47xytBqSI23kSyQV7mt-58" style="edgeStyle=orthogonalEdgeStyle;rounded=0;orthogonalLoop=1;jettySize=auto;html=1;exitX=0.5;exitY=1;exitDx=0;exitDy=0;entryX=0.5;entryY=0;entryDx=0;entryDy=0;" edge="1" parent="1" source="R47xytBqSI23kSyQV7mt-4" target="R47xytBqSI23kSyQV7mt-50">
          <mxGeometry relative="1" as="geometry" />
        </mxCell>
        <mxCell id="R47xytBqSI23kSyQV7mt-4" value="PID&lt;br&gt;(PD or LQR)" style="rhombus;whiteSpace=wrap;html=1;" vertex="1" parent="1">
          <mxGeometry x="550" y="630" width="110" height="110" as="geometry" />
        </mxCell>
        <mxCell id="R47xytBqSI23kSyQV7mt-5" value="DC Motors" style="rounded=0;whiteSpace=wrap;html=1;" vertex="1" parent="1">
          <mxGeometry x="780" y="640" width="120" height="30" as="geometry" />
        </mxCell>
        <mxCell id="R47xytBqSI23kSyQV7mt-6" value="Head Stepper" style="rounded=0;whiteSpace=wrap;html=1;" vertex="1" parent="1">
          <mxGeometry x="780" y="700" width="120" height="30" as="geometry" />
        </mxCell>
        <mxCell id="R47xytBqSI23kSyQV7mt-8" value="RPLidar A1&lt;br&gt;8Hz-10Hz" style="rounded=0;whiteSpace=wrap;html=1;" vertex="1" parent="1">
          <mxGeometry x="40" y="170" width="120" height="30" as="geometry" />
        </mxCell>
        <mxCell id="R47xytBqSI23kSyQV7mt-59" style="edgeStyle=orthogonalEdgeStyle;rounded=0;orthogonalLoop=1;jettySize=auto;html=1;exitX=1;exitY=0.5;exitDx=0;exitDy=0;entryX=0;entryY=0.5;entryDx=0;entryDy=0;" edge="1" parent="1" source="R47xytBqSI23kSyQV7mt-9" target="R47xytBqSI23kSyQV7mt-54">
          <mxGeometry relative="1" as="geometry" />
        </mxCell>
        <mxCell id="R47xytBqSI23kSyQV7mt-64" value="" style="edgeStyle=orthogonalEdgeStyle;rounded=0;orthogonalLoop=1;jettySize=auto;html=1;" edge="1" parent="1" source="R47xytBqSI23kSyQV7mt-9" target="R47xytBqSI23kSyQV7mt-40">
          <mxGeometry relative="1" as="geometry" />
        </mxCell>
        <mxCell id="R47xytBqSI23kSyQV7mt-77" style="edgeStyle=orthogonalEdgeStyle;rounded=0;orthogonalLoop=1;jettySize=auto;html=1;exitX=0.5;exitY=1;exitDx=0;exitDy=0;entryX=0;entryY=0;entryDx=0;entryDy=0;" edge="1" parent="1" source="R47xytBqSI23kSyQV7mt-9" target="R47xytBqSI23kSyQV7mt-15">
          <mxGeometry relative="1" as="geometry" />
        </mxCell>
        <mxCell id="R47xytBqSI23kSyQV7mt-9" value="Cartographer&lt;div&gt;&lt;span style=&quot;background-color: transparent; color: light-dark(rgb(0, 0, 0), rgb(255, 255, 255)); text-align: start;&quot;&gt;publish_frame&lt;br&gt;no odom_frame&lt;/span&gt;&lt;/div&gt;" style="rhombus;whiteSpace=wrap;html=1;" vertex="1" parent="1">
          <mxGeometry x="380" y="40" width="110" height="110" as="geometry" />
        </mxCell>
        <mxCell id="R47xytBqSI23kSyQV7mt-10" value="RViz" style="rounded=0;whiteSpace=wrap;html=1;" vertex="1" parent="1">
          <mxGeometry x="780" y="170" width="120" height="30" as="geometry" />
        </mxCell>
        <mxCell id="R47xytBqSI23kSyQV7mt-11" value="Global&lt;br&gt;Navigation&lt;br&gt;navfn" style="rhombus;whiteSpace=wrap;html=1;" vertex="1" parent="1">
          <mxGeometry x="550" y="265" width="110" height="110" as="geometry" />
        </mxCell>
        <mxCell id="R47xytBqSI23kSyQV7mt-12" value="Local&lt;br&gt;Navigation&lt;br&gt;dwa" style="rhombus;whiteSpace=wrap;html=1;" vertex="1" parent="1">
          <mxGeometry x="550" y="385" width="110" height="110" as="geometry" />
        </mxCell>
        <mxCell id="R47xytBqSI23kSyQV7mt-78" style="edgeStyle=orthogonalEdgeStyle;rounded=0;orthogonalLoop=1;jettySize=auto;html=1;exitX=0;exitY=1;exitDx=0;exitDy=0;entryX=0;entryY=0;entryDx=0;entryDy=0;" edge="1" parent="1" source="R47xytBqSI23kSyQV7mt-15" target="R47xytBqSI23kSyQV7mt-4">
          <mxGeometry relative="1" as="geometry">
            <Array as="points">
              <mxPoint x="518" y="657" />
            </Array>
          </mxGeometry>
        </mxCell>
        <mxCell id="R47xytBqSI23kSyQV7mt-15" value="move_base" style="rhombus;whiteSpace=wrap;html=1;" vertex="1" parent="1">
          <mxGeometry x="490" y="325" width="110" height="110" as="geometry" />
        </mxCell>
        <mxCell id="R47xytBqSI23kSyQV7mt-35" style="edgeStyle=orthogonalEdgeStyle;rounded=0;orthogonalLoop=1;jettySize=auto;html=1;exitX=1;exitY=0.5;exitDx=0;exitDy=0;entryX=0;entryY=0.5;entryDx=0;entryDy=0;" edge="1" parent="1" source="R47xytBqSI23kSyQV7mt-37" target="R47xytBqSI23kSyQV7mt-40">
          <mxGeometry relative="1" as="geometry" />
        </mxCell>
        <mxCell id="R47xytBqSI23kSyQV7mt-36" value="&amp;nbsp;raw&amp;nbsp;" style="edgeLabel;html=1;align=center;verticalAlign=middle;resizable=0;points=[];" vertex="1" connectable="0" parent="R47xytBqSI23kSyQV7mt-35">
          <mxGeometry x="-0.1684" y="-1" relative="1" as="geometry">
            <mxPoint x="-1" y="-1" as="offset" />
          </mxGeometry>
        </mxCell>
        <mxCell id="R47xytBqSI23kSyQV7mt-37" value="Head IMU raw&lt;br&gt;500Hz - 1kHz" style="rounded=0;whiteSpace=wrap;html=1;" vertex="1" parent="1">
          <mxGeometry x="40" y="80" width="120" height="30" as="geometry" />
        </mxCell>
        <mxCell id="R47xytBqSI23kSyQV7mt-38" style="edgeStyle=orthogonalEdgeStyle;rounded=0;orthogonalLoop=1;jettySize=auto;html=1;exitX=1;exitY=0.5;exitDx=0;exitDy=0;entryX=0;entryY=0.5;entryDx=0;entryDy=0;" edge="1" parent="1" source="R47xytBqSI23kSyQV7mt-40">
          <mxGeometry relative="1" as="geometry">
            <mxPoint x="380" y="95" as="targetPoint" />
          </mxGeometry>
        </mxCell>
        <mxCell id="R47xytBqSI23kSyQV7mt-39" value="&amp;nbsp;filtered&amp;nbsp;" style="edgeLabel;html=1;align=center;verticalAlign=middle;resizable=0;points=[];" vertex="1" connectable="0" parent="R47xytBqSI23kSyQV7mt-38">
          <mxGeometry x="-0.2667" y="-1" relative="1" as="geometry">
            <mxPoint x="3" y="-1" as="offset" />
          </mxGeometry>
        </mxCell>
        <mxCell id="R47xytBqSI23kSyQV7mt-40" value="Madgwick&lt;br&gt;Filter" style="rhombus;whiteSpace=wrap;html=1;" vertex="1" parent="1">
          <mxGeometry x="210" y="40" width="110" height="110" as="geometry" />
        </mxCell>
        <mxCell id="R47xytBqSI23kSyQV7mt-49" value="map&amp;nbsp;&lt;span style=&quot;font-size: 14px;&quot;&gt;↦&lt;/span&gt;&amp;nbsp;odom&amp;nbsp;&lt;span style=&quot;font-size: 14px;&quot;&gt;↦&lt;/span&gt;&amp;nbsp;base_link&amp;nbsp;&lt;span style=&quot;font-size: 14px;&quot;&gt;↦&lt;/span&gt;&amp;nbsp;head_joint&amp;nbsp;&lt;span style=&quot;font-size: 14px;&quot;&gt;↦&lt;/span&gt;&amp;nbsp;head_link&amp;nbsp;&lt;span style=&quot;font-size: 14px;&quot;&gt;↦&lt;/span&gt;&amp;nbsp;laser_link + imu_link" style="rounded=1;whiteSpace=wrap;html=1;glass=0;shadow=0;arcSize=48;imageWidth=24;" vertex="1" parent="1">
          <mxGeometry x="160" y="1130" width="550" height="60" as="geometry" />
        </mxCell>
        <mxCell id="R47xytBqSI23kSyQV7mt-50" value="head_joint&amp;nbsp;&lt;span style=&quot;font-size: 14px;&quot;&gt;↦&lt;/span&gt;&amp;nbsp;head_link" style="rounded=1;whiteSpace=wrap;html=1;glass=0;shadow=0;arcSize=48;imageWidth=24;" vertex="1" parent="1">
          <mxGeometry x="525" y="770" width="160" height="60" as="geometry" />
        </mxCell>
        <mxCell id="R47xytBqSI23kSyQV7mt-51" value="odom&amp;nbsp;&lt;font style=&quot;font-size: 14px;&quot;&gt;↦&lt;/font&gt;&amp;nbsp;base_link" style="rounded=1;whiteSpace=wrap;html=1;glass=0;shadow=0;arcSize=48;imageWidth=24;" vertex="1" parent="1">
          <mxGeometry x="355" y="770" width="160" height="60" as="geometry" />
        </mxCell>
        <mxCell id="R47xytBqSI23kSyQV7mt-52" value="head_link&amp;nbsp;&lt;span style=&quot;font-size: 14px;&quot;&gt;↦&lt;/span&gt;&amp;nbsp;imu_link" style="rounded=1;whiteSpace=wrap;html=1;glass=0;shadow=0;arcSize=48;imageWidth=24;" vertex="1" parent="1">
          <mxGeometry x="355" y="950" width="160" height="60" as="geometry" />
        </mxCell>
        <mxCell id="R47xytBqSI23kSyQV7mt-53" value="base_link&amp;nbsp;&lt;span style=&quot;font-size: 14px;&quot;&gt;↦&lt;/span&gt;&amp;nbsp;head_joint" style="rounded=1;whiteSpace=wrap;html=1;glass=0;shadow=0;arcSize=48;imageWidth=24;" vertex="1" parent="1">
          <mxGeometry x="355" y="880" width="160" height="60" as="geometry" />
        </mxCell>
        <mxCell id="R47xytBqSI23kSyQV7mt-54" value="map&amp;nbsp;&lt;span style=&quot;font-size: 14px;&quot;&gt;↦&lt;/span&gt;&amp;nbsp;odom" style="rounded=1;whiteSpace=wrap;html=1;glass=0;shadow=0;arcSize=48;imageWidth=24;" vertex="1" parent="1">
          <mxGeometry x="530" y="65" width="160" height="60" as="geometry" />
        </mxCell>
        <mxCell id="R47xytBqSI23kSyQV7mt-55" value="head_link&amp;nbsp;&lt;span style=&quot;font-size: 14px;&quot;&gt;↦&lt;/span&gt;&amp;nbsp;laser_link" style="rounded=1;whiteSpace=wrap;html=1;glass=0;shadow=0;arcSize=48;imageWidth=24;" vertex="1" parent="1">
          <mxGeometry x="355" y="1020" width="160" height="60" as="geometry" />
        </mxCell>
        <mxCell id="R47xytBqSI23kSyQV7mt-56" style="edgeStyle=orthogonalEdgeStyle;rounded=0;orthogonalLoop=1;jettySize=auto;html=1;exitX=1;exitY=0.5;exitDx=0;exitDy=0;entryX=0.182;entryY=0.727;entryDx=0;entryDy=0;entryPerimeter=0;" edge="1" parent="1" source="R47xytBqSI23kSyQV7mt-8" target="R47xytBqSI23kSyQV7mt-9">
          <mxGeometry relative="1" as="geometry" />
        </mxCell>
        <mxCell id="R47xytBqSI23kSyQV7mt-65" value="scan" style="edgeLabel;html=1;align=center;verticalAlign=middle;resizable=0;points=[];" vertex="1" connectable="0" parent="R47xytBqSI23kSyQV7mt-56">
          <mxGeometry x="-0.3115" y="-1" relative="1" as="geometry">
            <mxPoint as="offset" />
          </mxGeometry>
        </mxCell>
        <mxCell id="R47xytBqSI23kSyQV7mt-72" style="edgeStyle=orthogonalEdgeStyle;rounded=0;orthogonalLoop=1;jettySize=auto;html=1;exitX=1;exitY=0.5;exitDx=0;exitDy=0;entryX=0.5;entryY=0;entryDx=0;entryDy=0;" edge="1" parent="1" source="R47xytBqSI23kSyQV7mt-60" target="R47xytBqSI23kSyQV7mt-63">
          <mxGeometry relative="1" as="geometry" />
        </mxCell>
        <mxCell id="R47xytBqSI23kSyQV7mt-60" value="Keyboard" style="rounded=0;whiteSpace=wrap;html=1;" vertex="1" parent="1">
          <mxGeometry x="40" y="250" width="120" height="30" as="geometry" />
        </mxCell>
        <mxCell id="R47xytBqSI23kSyQV7mt-73" style="edgeStyle=orthogonalEdgeStyle;rounded=0;orthogonalLoop=1;jettySize=auto;html=1;exitX=1;exitY=0.5;exitDx=0;exitDy=0;entryX=0;entryY=0.5;entryDx=0;entryDy=0;" edge="1" parent="1" source="R47xytBqSI23kSyQV7mt-61" target="R47xytBqSI23kSyQV7mt-62">
          <mxGeometry relative="1" as="geometry" />
        </mxCell>
        <mxCell id="R47xytBqSI23kSyQV7mt-61" value="PS5 Controller" style="rounded=0;whiteSpace=wrap;html=1;" vertex="1" parent="1">
          <mxGeometry x="40" y="365" width="120" height="30" as="geometry" />
        </mxCell>
        <mxCell id="R47xytBqSI23kSyQV7mt-74" style="edgeStyle=orthogonalEdgeStyle;rounded=0;orthogonalLoop=1;jettySize=auto;html=1;exitX=1;exitY=0.5;exitDx=0;exitDy=0;entryX=0;entryY=0.5;entryDx=0;entryDy=0;" edge="1" parent="1" source="R47xytBqSI23kSyQV7mt-62" target="R47xytBqSI23kSyQV7mt-63">
          <mxGeometry relative="1" as="geometry" />
        </mxCell>
        <mxCell id="R47xytBqSI23kSyQV7mt-62" value="ps" style="rhombus;whiteSpace=wrap;html=1;" vertex="1" parent="1">
          <mxGeometry x="190" y="325" width="110" height="110" as="geometry" />
        </mxCell>
        <mxCell id="R47xytBqSI23kSyQV7mt-76" style="edgeStyle=orthogonalEdgeStyle;rounded=0;orthogonalLoop=1;jettySize=auto;html=1;exitX=1;exitY=0.5;exitDx=0;exitDy=0;entryX=0;entryY=0.5;entryDx=0;entryDy=0;" edge="1" parent="1" source="R47xytBqSI23kSyQV7mt-63" target="R47xytBqSI23kSyQV7mt-15">
          <mxGeometry relative="1" as="geometry" />
        </mxCell>
        <mxCell id="R47xytBqSI23kSyQV7mt-79" style="edgeStyle=orthogonalEdgeStyle;rounded=0;orthogonalLoop=1;jettySize=auto;html=1;exitX=0.5;exitY=1;exitDx=0;exitDy=0;entryX=0;entryY=0;entryDx=0;entryDy=0;" edge="1" parent="1" source="R47xytBqSI23kSyQV7mt-63" target="R47xytBqSI23kSyQV7mt-4">
          <mxGeometry relative="1" as="geometry" />
        </mxCell>
        <mxCell id="R47xytBqSI23kSyQV7mt-63" value="bb8_remote" style="rhombus;whiteSpace=wrap;html=1;" vertex="1" parent="1">
          <mxGeometry x="340" y="325" width="110" height="110" as="geometry" />
        </mxCell>
        <mxCell id="R47xytBqSI23kSyQV7mt-68" style="edgeStyle=orthogonalEdgeStyle;rounded=0;orthogonalLoop=1;jettySize=auto;html=1;exitX=1;exitY=0.5;exitDx=0;exitDy=0;entryX=0;entryY=0.5;entryDx=0;entryDy=0;" edge="1" parent="1" source="R47xytBqSI23kSyQV7mt-66" target="R47xytBqSI23kSyQV7mt-52">
          <mxGeometry relative="1" as="geometry" />
        </mxCell>
        <mxCell id="R47xytBqSI23kSyQV7mt-69" style="edgeStyle=orthogonalEdgeStyle;rounded=0;orthogonalLoop=1;jettySize=auto;html=1;exitX=1;exitY=0.5;exitDx=0;exitDy=0;entryX=0;entryY=0.5;entryDx=0;entryDy=0;" edge="1" parent="1" source="R47xytBqSI23kSyQV7mt-66" target="R47xytBqSI23kSyQV7mt-53">
          <mxGeometry relative="1" as="geometry" />
        </mxCell>
        <mxCell id="R47xytBqSI23kSyQV7mt-70" style="edgeStyle=orthogonalEdgeStyle;rounded=0;orthogonalLoop=1;jettySize=auto;html=1;exitX=1;exitY=0.5;exitDx=0;exitDy=0;entryX=0;entryY=0.5;entryDx=0;entryDy=0;" edge="1" parent="1" source="R47xytBqSI23kSyQV7mt-66" target="R47xytBqSI23kSyQV7mt-55">
          <mxGeometry relative="1" as="geometry" />
        </mxCell>
        <mxCell id="R47xytBqSI23kSyQV7mt-66" value="Static TF" style="rhombus;whiteSpace=wrap;html=1;" vertex="1" parent="1">
          <mxGeometry x="210" y="925" width="110" height="110" as="geometry" />
        </mxCell>
        <mxCell id="R47xytBqSI23kSyQV7mt-82" value="Costmap" style="rhombus;whiteSpace=wrap;html=1;" vertex="1" parent="1">
          <mxGeometry x="610" y="325" width="110" height="110" as="geometry" />
        </mxCell>
      </root>
    </mxGraphModel>
  </diagram>
</mxfile>
